<svg width="44" height="30" viewBox="0 0 44 30" fill="none" xmlns="http://www.w3.org/2000/svg">
<path d="M22 4C25.6775 3.98777 29.2837 5.01357 32.4042 6.95945C35.5247 8.90534 38.0328 11.6923 39.64 15C36.34 21.74 29.6 26 22 26C14.4 26 7.66 21.74 4.36 15C5.96724 11.6923 8.47527 8.90534 11.5958 6.95945C14.7163 5.01357 18.3225 3.98777 22 4ZM22 0C12 0 3.46 6.22 0 15C3.46 23.78 12 30 22 30C32 30 40.54 23.78 44 15C40.54 6.22 32 0 22 0ZM22 10C23.3261 10 24.5979 10.5268 25.5355 11.4645C26.4732 12.4021 27 13.6739 27 15C27 16.3261 26.4732 17.5979 25.5355 18.5355C24.5979 19.4732 23.3261 20 22 20C20.6739 20 19.4021 19.4732 18.4645 18.5355C17.5268 17.5979 17 16.3261 17 15C17 13.6739 17.5268 12.4021 18.4645 11.4645C19.4021 10.5268 20.6739 10 22 10ZM22 6C17.04 6 13 10.04 13 15C13 19.96 17.04 24 22 24C26.96 24 31 19.96 31 15C31 10.04 26.96 6 22 6Z" fill="white"/>
</svg>
