<svg width="26" height="24" viewBox="0 0 26 24" fill="none" xmlns="http://www.w3.org/2000/svg">
<path d="M24.976 0.832696C24.6438 0.556379 24.2429 0.375301 23.816 0.308737C23.3891 0.242174 22.9521 0.292617 22.5516 0.454696L1.6438 8.89553C1.19679 9.07951 0.816295 9.39505 0.552783 9.8003C0.289271 10.2055 0.155202 10.6813 0.168365 11.1645C0.181527 11.6477 0.341298 12.1155 0.62648 12.5058C0.911662 12.8961 1.30877 13.1905 1.76513 13.3499L5.9943 14.821L8.35097 22.6167C8.38326 22.7207 8.43 22.8197 8.4898 22.9107C8.49913 22.9247 8.51196 22.934 8.5213 22.9492C8.59005 23.0449 8.67307 23.1295 8.76746 23.2C8.79381 23.2207 8.82106 23.2401 8.84913 23.2584C8.95964 23.3317 9.082 23.3854 9.2108 23.417L9.22597 23.4182L9.23296 23.4217C9.31093 23.4374 9.39027 23.4452 9.4698 23.445L9.4908 23.4415C9.61028 23.4395 9.72874 23.4191 9.84196 23.3809C9.8688 23.3715 9.89097 23.3575 9.91663 23.3459C10.0013 23.3111 10.0816 23.2665 10.1558 23.2129C10.2149 23.1627 10.274 23.1125 10.3331 23.0624L13.4855 19.5822L18.1871 23.2245C18.601 23.5469 19.1104 23.7221 19.635 23.7227C20.1847 23.7221 20.7176 23.5324 21.1441 23.1855C21.5707 22.8386 21.8649 22.3556 21.9776 21.8175L25.7845 3.13103C25.8706 2.71063 25.8408 2.27473 25.6984 1.86992C25.556 1.46511 25.3063 1.1066 24.976 0.832696ZM9.9318 15.192C9.77022 15.3533 9.65983 15.5586 9.61446 15.7824L9.2528 17.537L8.33813 14.5119L13.0806 12.042L9.9318 15.192ZM19.6175 21.38L14.0606 17.075C13.8281 16.8956 13.5365 16.8104 13.244 16.8363C12.9515 16.8623 12.6794 16.9975 12.4821 17.215L11.4718 18.3292L11.8288 16.5944L20.0923 8.33086C20.2884 8.1336 20.4075 7.87277 20.4282 7.59542C20.449 7.31806 20.37 7.04243 20.2054 6.81819C20.0409 6.59396 19.8016 6.43589 19.5308 6.37248C19.26 6.30907 18.9755 6.3445 18.7285 6.47236L6.8693 12.6464L2.52346 11.0562L23.499 2.6667L19.6175 21.38Z" fill="#524E63"/>
</svg>
