<svg width="28" height="16" viewBox="0 0 28 16" fill="none" xmlns="http://www.w3.org/2000/svg">
<path fill-rule="evenodd" clip-rule="evenodd" d="M26.507 1.21875C26.7017 0.601875 26.507 0.153437 25.6457 0.153437H22.7817C22.0593 0.153437 21.7257 0.546094 21.531 0.966094C21.531 0.966094 20.0577 4.55359 18.0004 6.87945C17.3332 7.55211 17.0275 7.77633 16.666 7.77633C16.4713 7.77633 16.2209 7.55211 16.2209 6.93578V1.18977C16.2209 0.461328 15.9988 0.125 15.3869 0.125H10.8828C10.4377 0.125 10.1598 0.461328 10.1598 0.797656C10.1598 1.4982 11.1885 1.66664 11.2995 3.62828V7.89062C11.2995 8.81539 11.1355 8.98438 10.7713 8.98438C9.79836 8.98438 7.43531 5.36898 6.01781 1.24937C5.74219 0.433437 5.46219 0.125 4.73922 0.125H1.84789C1.01391 0.125 0.875 0.517109 0.875 0.937656C0.875 1.69453 1.84789 5.5057 5.40641 10.5501C7.76945 13.9954 11.1333 15.8471 14.1635 15.8471C15.9988 15.8471 16.2209 15.4266 16.2209 14.726V12.1196C16.2209 11.2791 16.3877 11.1391 16.9717 11.1391C17.3884 11.1391 18.1393 11.3627 19.8352 13.0165C21.7809 14.9781 22.1145 15.875 23.199 15.875H26.0624C26.8964 15.875 27.2858 15.4545 27.0632 14.6418C26.8133 13.8291 25.8677 12.6523 24.6444 11.2512C23.9772 10.467 22.9764 9.59797 22.6707 9.17742C22.254 8.61687 22.365 8.39266 22.6707 7.88844C22.6428 7.88844 26.1461 2.89984 26.507 1.21656" fill="#524E63"/>
</svg>
